<?xml version="1.0" encoding="utf-8"?>
<!-- Generator: Adobe Illustrator 16.0.0, SVG Export Plug-In . SVG Version: 6.00 Build 0)  -->
<!DOCTYPE svg PUBLIC "-//W3C//DTD SVG 1.1//EN" "http://www.w3.org/Graphics/SVG/1.1/DTD/svg11.dtd">
<svg version="1.1" id="Layer_1" xmlns="http://www.w3.org/2000/svg" xmlns:xlink="http://www.w3.org/1999/xlink" x="0px" y="0px"
	 width="244.898px" height="233.275px" viewBox="0 0 244.898 233.275" enable-background="new 0 0 244.898 233.275"
	 xml:space="preserve">
<g id="Layer_14" display="none">
	<g id="Layer_11" display="inline">
		<text transform="matrix(0.7116 -0.7026 0.7026 0.7116 76.573 232.2136)" font-family="'ArialMT'" font-size="139.0357">U</text>
		<text transform="matrix(0.7116 -0.7026 0.7026 0.7116 117.0378 192.2585)" font-family="'ArialMT'" font-size="139.1579">P</text>
		<rect x="97.186" y="-17.602" transform="matrix(0.1727 -0.985 0.985 0.1727 41.8396 185.3854)" width="68.185" height="170.776"/>
		<text transform="matrix(1.2391 0.2173 -0.1727 0.985 50.0232 78.3928)" fill="#FFFFFF" font-family="'ArialMT'" font-size="66">THE</text>
		
			<rect x="84.599" y="105.324" transform="matrix(0.1727 -0.985 0.985 0.1727 13.4587 286.0447)" fill="#F15946" width="184.822" height="59.373"/>
		
			<text transform="matrix(0.1727 -0.985 0.985 0.1727 189.0242 218.2263)" fill="#FFFFFF" font-family="'ArialMT'" font-size="77.9771">A</text>
		
			<text transform="matrix(0.1727 -0.985 0.985 0.1727 195.1785 183.1267)" fill="#FFFFFF" font-family="'ArialMT'" font-size="77.9771">N</text>
		
			<text transform="matrix(0.1727 -0.985 0.985 0.1727 200.4304 153.1716)" fill="#FFFFFF" font-family="'ArialMT'" font-size="77.0319">TICS</text>
	</g>
	<g id="Layer_4" display="inline">
		<text transform="matrix(1 0 0 1 25.6414 142.3708)" fill="#F15846" font-family="'ArialMT'" font-size="160.8587">U</text>
		<text transform="matrix(1 0 0 1 91.4329 142.3708)" fill="#F15846" font-family="'ArialMT'" font-size="161">P</text>
		<text transform="matrix(1 0 0 1 141.1912 139.7966)" font-family="'ArialMT'" font-size="66.5878">THE</text>
		<text transform="matrix(1 0 0 1 24.3333 214.0095)" font-family="'ArialMT'" font-size="94.2089">A</text>
		<text transform="matrix(1 0 0 1 67.384 214.0095)" font-family="'ArialMT'" font-size="94.2089">N</text>
		<text transform="matrix(1 0 0 1 104.1248 214.0095)" font-family="'ArialMT'" font-size="93.067">TICS</text>
	</g>
	<g id="Layer_8" display="inline">
		<text transform="matrix(1 0 0 1 -203.0354 225.0955)" fill="#F15846" font-family="'ArialMT'" font-size="311.542">U</text>
		<text transform="matrix(1 0 0 1 -75.6169 225.0955)" fill="#F15846" font-family="'ArialMT'" font-size="311.8157">P</text>
		<text transform="matrix(1 0 0 1 35.0579 94.0085)" font-family="'ArialMT'" font-size="107.9822">THE</text>
		<text transform="matrix(1 0 0 1 25.8704 225.0955)" font-family="'ArialMT'" font-size="182.4585">A</text>
		<text transform="matrix(1 0 0 1 109.2512 225.0955)" font-family="'ArialMT'" font-size="182.4585">N</text>
		<text transform="matrix(1 0 0 1 180.408 225.0955)" font-family="'ArialMT'" font-size="180.2469">TICS</text>
		<rect x="176.34" y="83.526" width="233.918" height="10.603"/>
		<rect x="-205.121" y="234.124" width="615.379" height="11.62"/>
	</g>
	<g id="Layer_7" display="inline">
		<text transform="matrix(1 0 0 1 -203.0354 225.0955)" fill="#F15846" font-family="'ArialMT'" font-size="311.542">U</text>
		<text transform="matrix(1 0 0 1 -75.6169 225.0955)" fill="#F15846" font-family="'ArialMT'" font-size="311.8157">P</text>
		<text transform="matrix(1 0 0 1 35.0579 94.0085)" font-family="'ArialMT'" font-size="107.9822">THE</text>
		<text transform="matrix(1 0 0 1 25.8704 225.0955)" font-family="'ArialMT'" font-size="182.4585">A</text>
		<text transform="matrix(1 0 0 1 109.2512 225.0955)" font-family="'ArialMT'" font-size="182.4585">N</text>
		<text transform="matrix(1 0 0 1 180.408 225.0955)" font-family="'ArialMT'" font-size="180.2469">TICS</text>
	</g>
	<g id="Layer_5" display="inline">
		<text transform="matrix(1 0 0 1 1.8333 140.4412)" fill="#F15846" font-family="'ArialMT'" font-size="134.5183">P</text>
		<text transform="matrix(1 0 0 1 -78.1711 194.1912)" font-family="'ArialMT'" font-size="56.6869">ANTICS</text>
		<text transform="matrix(1 0 0 1 -78.1663 140.9304)" fill="#F15846" font-family="'ArialMT'" font-size="134.3799">U</text>
		<g>
			<text transform="matrix(0 1 -1 0 76.0447 61.5896)" font-family="'Arial-BoldMT'" font-size="41.9655">THE</text>
			<polygon points="76.155,58.657 91.207,39.109 106.259,58.657 			"/>
		</g>
	</g>
	<g id="Layer_6" display="inline">
		<text transform="matrix(1 0 0 1 -2.8977 151.0398)" fill="#F15846" font-family="'ArialMT'" font-size="206.1759">U</text>
		<text transform="matrix(1 0 0 1 81.426 151.0398)" fill="#F15846" font-family="'ArialMT'" font-size="206.3571">P</text>
		<g>
			<text transform="matrix(1 0 0 1 60.3333 214.0095)" font-family="'ArialMT'" font-size="94.2089">N</text>
			<text transform="matrix(1 0 0 1 97.073 214.0095)" font-family="'ArialMT'" font-size="93.067">TICS</text>
			<g>
				<polygon points="37.646,159.613 27.489,202.867 48.208,202.867 				"/>
				<path d="M53.49,209.247c0,2.244-1.819,4.063-4.063,4.063H27.895c-2.244,0-4.063-1.818-4.063-4.063l0,0
					c0-2.244,1.818-4.063,4.063-4.063h21.53C51.671,205.184,53.49,207.003,53.49,209.247L53.49,209.247z"/>
				<text transform="matrix(1 0 0 1 24.0359 202.866)" font-family="'ArialMT'" font-size="76.5468">A</text>
			</g>
		</g>
		<rect x="156.257" y="-4.704" width="101.104" height="253.227"/>
		<text transform="matrix(0 1.258 -1 0 171.5212 12.5242)" fill="#FFFFFF" font-family="'ArialMT'" font-size="92.5958">THE</text>
		<rect x="-16.692" y="161.904" width="274.051" height="88.037"/>
		<text transform="matrix(1 0 0 1 1.7664 244.822)" fill="#FFFFFF" font-family="'ArialMT'" font-size="115.6322">A</text>
		<text transform="matrix(1 0 0 1 54.6082 244.822)" fill="#FFFFFF" font-family="'ArialMT'" font-size="115.6322">N</text>
		<text transform="matrix(1 0 0 1 99.7043 244.822)" fill="#FFFFFF" font-family="'ArialMT'" font-size="114.2306">TICS</text>
	</g>
	<g id="Layer_13" display="inline">
		<text transform="matrix(0.9159 -0.4013 0.4013 0.9159 39.7781 207.0466)" font-family="'ArialMT'" font-size="139.018">U</text>
		<text transform="matrix(0.9159 -0.4013 0.4013 0.9159 91.8601 184.2273)" font-family="'ArialMT'" font-size="139.14">P</text>
		<text transform="matrix(1.0792 0.6465 -0.5139 0.8579 70.1453 55.2566)" font-family="'ArialMT'" font-size="66.0084">THE</text>
		
			<text transform="matrix(0.5139 -0.8579 0.8579 0.5139 149.8679 234.2527)" fill="#F15946" font-family="'ArialMT'" font-size="77.987">A</text>
		
			<text transform="matrix(0.5139 -0.8579 0.8579 0.5139 168.1833 203.6794)" fill="#F15946" font-family="'ArialMT'" font-size="77.987">N</text>
		
			<text transform="matrix(0.5139 -0.8579 0.8579 0.5139 183.8093 177.5906)" fill="#F15946" font-family="'ArialMT'" font-size="77.0418">TICS</text>
	</g>
	<g id="Layer_9" display="inline">
		<g id="Layer_12" display="none">
			<g display="inline">
				<g>
					<path d="M101.975,208.487v-100.69h16.799l33.599,67.126v-50.345h16.8v83.907h-16.8l-33.599-67.126v67.126L101.975,208.487
						L101.975,208.487z"/>
					<path d="M211.097,208.487v-82.891h-33.19v-16.578h66.381v16.578h-16.596v82.891H211.097z"/>
					<path d="M257.234,208.487v-99.469h16.596v99.469H257.234z"/>
					<path d="M323.947,208.487c-9.25,0-17.112-3.237-23.597-9.714c-6.396-6.391-9.596-14.202-9.596-23.441v-33.157
						c0-9.149,3.241-16.967,9.726-23.44c6.396-6.478,14.217-9.714,23.467-9.714h33.191v33.154h-16.597v-16.576h-16.595
						c-4.582,0-8.515,1.641-11.799,4.922c-3.198,3.28-4.798,7.168-4.798,11.654v33.157c0,4.577,1.599,8.506,4.798,11.786
						c3.284,3.194,7.217,4.792,11.799,4.792h16.595v-16.578h16.597v33.155H323.947z"/>
					<path d="M382.362,208.487V191.91h16.596c4.494,0,8.383-1.598,11.669-4.792c3.284-3.28,4.928-7.209,4.928-11.786
						c0-4.489-1.644-8.374-4.928-11.657c-3.286-3.278-7.175-4.922-11.669-4.922h-33.189v-16.578c0-9.149,3.239-16.967,9.725-23.44
						c6.396-6.478,14.217-9.714,23.467-9.714h16.597v16.578H398.96c-4.582,0-8.515,1.641-11.798,4.922
						c-3.199,3.28-4.799,7.168-4.799,11.654h16.596c9.161,0,16.984,3.283,23.467,9.846c6.483,6.392,9.727,14.162,9.727,23.313
						c0,9.239-3.285,17.098-9.854,23.571c-6.396,6.392-14.177,9.584-23.338,9.584L382.362,208.487L382.362,208.487z"/>
				</g>
				<path d="M82.725,117.762c-5.354-5.417-11.608-8.625-18.768-9.624c-1.617,5.863-4.144,11.348-7.597,16.439h2.606
					c4.549,0,8.485,1.662,11.813,4.981c3.323,3.321,4.986,7.256,4.986,11.799v8.392H42.171v-10.198
					c-5.165,3.962-10.767,6.911-16.799,8.864v60.068h16.799v-41.953h33.6v41.953h16.799V141.36
					C92.568,132.097,89.287,124.231,82.725,117.762z"/>
			</g>
			<rect x="42.01" y="95.607" display="inline" fill="none" width="416.58" height="118.601"/>
			
				<text transform="matrix(1 0 0 1 42.0105 182.8025)" display="inline" font-family="'ArialMT'" font-size="116.2616" letter-spacing="-3">A</text>
			
				<text transform="matrix(1 0 0 1 108.2791 182.8025)" display="inline" font-family="'ArialMT'" font-size="116.2616" letter-spacing="-3">N</text>
			
				<text transform="matrix(1 0 0 1 173.9666 182.8025)" display="inline" font-family="'ArialMT'" font-size="114.8523" letter-spacing="-7">T</text>
			
				<text transform="matrix(1 0 0 1 235.4119 182.8025)" display="inline" font-family="'ArialMT'" font-size="114.8523" letter-spacing="-3">ICS</text>
			<text transform="matrix(1.001 0 0 1 52.5828 92.7214)" display="inline" font-family="'ArialMT'" font-size="88.063">THE</text>
			<g display="inline">
				<g>
					
						<text transform="matrix(1.001 0 0 1 -182.78 217.3279)" fill="#FFFFFF" font-family="'ArialMT'" font-size="238.6342" letter-spacing="-10.989">U</text>
					
						<text transform="matrix(1.001 0 0 1 -47.8171 217.3279)" fill="#FFFFFF" font-family="'ArialMT'" font-size="238.1434" letter-spacing="-10.989">P</text>
				</g>
				<g>
					
						<text transform="matrix(1.001 0 0 1 -202.6223 208.824)" font-family="'ArialMT'" font-size="238.6342" letter-spacing="-10.989">U</text>
					
						<text transform="matrix(1.001 0 0 1 -67.6584 208.824)" font-family="'ArialMT'" font-size="238.1434" letter-spacing="-10.989">P</text>
				</g>
			</g>
			<g display="inline">
				<polygon points="-29,44.942 -29,122.942 21,122.942 46.333,86.16 27,44.942 				"/>
				<polyline fill="#FFFFFF" points="-19.889,108.276 28.917,108.276 4.514,49.776 				"/>
			</g>
		</g>
		<g>
			<polygon points="152.372,174.924 118.774,107.798 101.975,107.798 101.975,208.487 118.774,208.487 118.774,141.361 
				152.372,208.487 169.171,208.487 169.171,124.579 152.372,124.579 			"/>
			<polygon points="177.907,125.596 211.097,125.596 211.097,208.487 227.693,208.487 227.693,125.596 244.288,125.596 
				244.288,109.018 177.907,109.018 			"/>
			<rect x="257.234" y="109.018" width="16.596" height="99.469"/>
			<path d="M300.48,118.732c-6.482,6.477-9.726,14.291-9.726,23.44v33.157c0,9.239,3.197,17.053,9.596,23.441
				c6.481,6.477,14.348,9.714,23.598,9.714h33.19V175.33h-16.597v16.578h-16.595c-4.582,0-8.515-1.598-11.799-4.792
				c-3.198-3.28-4.798-7.209-4.798-11.786v-33.157c0-4.486,1.6-8.374,4.798-11.654c3.284-3.28,7.217-4.922,11.799-4.922h16.595
				v16.576h16.597v-33.154h-33.19C314.697,109.018,306.875,112.256,300.48,118.732z"/>
			<path d="M422.424,152.018c-6.48-6.563-14.306-9.846-23.467-9.846h-16.596c0-4.486,1.599-8.374,4.799-11.654
				c3.283-3.28,7.216-4.922,11.798-4.922h16.597v-16.578h-16.597c-9.25,0-17.07,3.236-23.467,9.714
				c-6.483,6.477-9.725,14.291-9.725,23.44v16.578h33.189c4.494,0,8.383,1.643,11.669,4.922c3.284,3.283,4.926,7.168,4.926,11.657
				c0,4.577-1.642,8.506-4.926,11.786c-3.286,3.194-7.175,4.792-11.669,4.792H382.36v16.577h16.596
				c9.161,0,16.939-3.193,23.338-9.584c6.568-6.478,9.854-14.332,9.854-23.571C432.149,166.18,428.907,158.408,422.424,152.018z"/>
			<path d="M70.361,109.736c-1.033,5.643-2.864,10.949-5.48,15.926c2.144,0.825,4.113,2.114,5.902,3.9
				c3.323,3.321,4.986,7.256,4.986,11.799v8.392H42.171v-0.079c-5.203,3.146-10.808,5.359-16.799,6.679v52.137h16.799v-41.953h33.6
				v41.953h16.799v-67.126c0-9.263-3.28-17.129-9.843-23.599C79.036,114.028,74.907,111.37,70.361,109.736z"/>
			<polygon points="72.985,92.721 85.683,92.721 85.683,40.348 103.934,40.348 103.934,29.684 73.333,29.684 54.735,29.684 
				54.735,40.348 72.985,40.348 			"/>
			<polygon points="126.295,64.643 151.218,64.643 151.218,92.721 163.915,92.721 163.915,29.684 151.218,29.684 151.218,53.979 
				126.295,53.979 126.295,29.684 113.597,29.684 113.597,92.721 126.295,92.721 			"/>
			<polygon points="221.142,82.057 190.753,82.057 190.753,65.417 217.268,65.417 217.268,54.753 190.753,54.753 190.753,40.348 
				219.636,40.348 219.636,29.684 178.055,29.684 178.055,92.721 221.142,92.721 			"/>
			<path fill="#F15846" d="M-113.042,149.166c0,8.236-2.956,15.306-8.865,21.207c-5.91,5.75-12.909,8.623-20.994,8.623
				c-8.245,0-15.32-2.873-21.229-8.623c-5.756-5.901-8.632-12.971-8.632-21.207V29.849h-29.859v119.315
				c0,16.626,5.752,30.687,17.265,42.183c11.664,11.65,25.813,17.479,42.458,17.479c16.481,0,30.479-5.746,41.989-17.245
				c11.816-11.65,17.729-25.788,17.729-42.414V29.849h-29.859L-113.042,149.166L-113.042,149.166z"/>
			<path fill="#F15846" d="M-37.855,149.289h29.799c16.449,0,30.417-5.732,41.905-17.21c11.793-11.628,17.691-25.732,17.691-42.326
				c0-16.433-5.818-30.386-17.46-41.859c-2.955-2.99-6.064-5.6-9.331-7.829c-9.598-6.562-20.533-9.847-32.807-9.847h-59.598v178.607
				h19.843h9.956L-37.855,149.289L-37.855,149.289z M-37.855,59.985h29.799c7.92,0,14.792,2.848,20.623,8.521
				c0.107,0.107,0.222,0.207,0.33,0.316c5.896,5.894,8.848,12.87,8.848,20.931c0,8.222-2.95,15.272-8.848,21.163
				c-5.899,5.737-12.884,8.604-20.953,8.604h-9.956h-19.843V59.985z"/>
		</g>
	</g>
	<g id="Layer_1_1_" display="inline">
		<text transform="matrix(1 0 0 1 -259.3669 191.7253)" font-family="'ArialMT'" font-size="160.8587" letter-spacing="-6">U</text>
		<text transform="matrix(1 0 0 1 -168.4822 191.7253)" font-family="'ArialMT'" font-size="160.5278" letter-spacing="-6">P</text>
		<text transform="matrix(0 1 -1 0 -77.4026 67.323)" font-family="'ArialMT'" font-size="72.3181">THE</text>
		<rect x="-8.215" y="67.957" fill="none" width="591.215" height="168.318"/>
		<text transform="matrix(1 0 0 1 -8.2156 191.7068)" font-family="'ArialMT'" font-size="165" letter-spacing="-6">A</text>
		<text transform="matrix(1 0 0 1 85.8357 191.7068)" font-family="'ArialMT'" font-size="165" letter-spacing="-6">N</text>
		<text transform="matrix(1 0 0 1 179.0623 191.7068)" font-family="'ArialMT'" font-size="163" letter-spacing="-11">T</text>
		<text transform="matrix(1 0 0 1 266.2654 191.7068)" font-family="'ArialMT'" font-size="163" letter-spacing="-6">ICS</text>
	</g>
</g>
<g id="UnPathed" display="none">
	
		<text transform="matrix(0.9159 -0.4013 0.4013 0.9159 41.7781 209.0476)" display="inline" font-family="'ArialMT'" font-size="139.018">U</text>
	
		<text transform="matrix(0.9159 -0.4013 0.4013 0.9159 93.8601 186.2273)" display="inline" font-family="'ArialMT'" font-size="139.14">P</text>
	<g display="inline">
		<path d="M200.695,143.329c2.676,1.604,6.175,0.727,7.777-1.95l29.21-48.76c1.603-2.676,0.726-6.175-1.95-7.777L98.969,2.913
			c-2.677-1.603-6.176-0.726-7.777,1.949l-29.21,48.761c-1.604,2.675-0.727,6.174,1.95,7.776L200.695,143.329z"/>
	</g>
	
		<rect x="197.826" y="53.588" transform="matrix(0.5139 -0.8578 0.8578 0.5139 33.7405 215.1059)" display="inline" fill="#F15946" width="17.717" height="48.383"/>
	<g display="inline">
		<path fill="#F15946" d="M154.406,230.363c2.675,1.603,6.174,0.726,7.776-1.949l79.803-133.216
			c1.603-2.676,0.726-6.175-1.949-7.777L195.35,60.652c-2.677-1.604-6.176-0.727-7.776,1.95L107.77,195.818
			c-1.604,2.676-0.727,6.175,1.95,7.776L154.406,230.363z"/>
	</g>
	
		<text transform="matrix(1.0792 0.6465 -0.5139 0.8579 70.1453 53.9221)" display="inline" fill="#FFFFFF" font-family="'ArialMT'" font-size="66.0084">THE</text>
	
		<text transform="matrix(0.5139 -0.8579 0.8579 0.5139 157.8074 221.2996)" display="inline" fill="#FFFFFF" font-family="'ArialMT'" font-size="71.9031">A</text>
	
		<text transform="matrix(0.5139 -0.8579 0.8579 0.5139 174.6902 193.116)" display="inline" fill="#FFFFFF" font-family="'ArialMT'" font-size="71.9031">N</text>
	
		<text transform="matrix(0.5139 -0.8579 0.8579 0.5139 189.0994 169.0603)" display="inline" fill="#FFFFFF" font-family="'ArialMT'" font-size="71.0314">TICS</text>
</g>
<g id="Layer_15">
	<g>
		<path fill="#EFEFEF" d="M165.782,106.304l24.696-46.454v-2.097L98.969,2.913c-2.677-1.603-6.176-0.726-7.777,1.949l-29.21,48.761
			c-1.604,2.675-0.727,6.174,1.95,7.776l91.518,54.828l0.53,0.285L165.782,106.304z"/>
		<g>
			<path fill="#EFEFEF" d="M5.361,128.005c-1.114-2.547,0.029-5.478,2.449-6.536l3.564-1.563c2.547-1.116,5.479,0.027,6.595,2.574
				l25.387,57.943c2.957,6.75,6.726,9.808,12.965,7.071c6.495-2.846,6.27-8.211,3.592-14.324l-25.388-57.943
				c-1.115-2.547,0.029-5.479,2.449-6.537l3.564-1.563c2.547-1.114,5.479,0.027,6.593,2.575l25.389,57.944
				c6.249,14.265,4.099,25.982-10.675,32.456c-15.282,6.693-25.184-0.654-31.099-14.154L5.361,128.005z"/>
			<path fill="#EFEFEF" d="M90.654,143.88L104.727,176c1.115,2.55-0.028,5.481-2.451,6.543l-3.568,1.563
				c-2.55,1.117-5.48-0.027-6.6-2.578L58.49,104.796c-1.117-2.55,0.027-5.48,2.577-6.601l13.767-6.029
				c15.551-6.813,26.008-1.672,33.212,14.771c7.204,16.441,3.896,27.617-11.654,34.432L90.654,143.88z M74.627,107.298
				l10.499,23.963l5.735-2.513c6.884-3.017,8.068-7.938,4.438-16.228c-3.739-8.539-8.053-10.752-14.937-7.735L74.627,107.298z"/>
		</g>
		<polygon fill="#F15946" points="181.373,72.954 190.478,57.755 231.985,82.621 191.699,68.637 		"/>
		<g>
			<path d="M92.429,15.115l14.028,8.404L83.466,61.904l-2.563-1.535l21.771-36.347l-11.466-6.869L92.429,15.115z M85.104,62.884
				l22.993-38.383l14.028,8.405l-1.222,2.037l-11.466-6.868L87.668,64.42L85.104,62.884z M122.908,31.604L93.209,13.813l1.223-2.038
				l29.696,17.791L122.908,31.604z"/>
			<path d="M130.503,33.307l-24.994,41.725l-2.49-1.494l24.994-41.725L130.503,33.307z M119.29,55.901l15.17,9.087l-12.07,20.154
				l-2.563-1.536l10.887-18.172l-10.111-6.061l-10.891,18.173l-2.491-1.491L119.29,55.901z M135.275,63.63l-15.17-9.087
				l12.105-20.211l2.493,1.493l-10.921,18.229l10.112,6.059l10.921-18.229l2.563,1.536L135.275,63.63z M124.027,86.124L149.021,44.4
				l2.563,1.536L126.589,87.66L124.027,86.124z"/>
			<path d="M158.38,52.853l-22.587,37.705l19.229,11.521l-1.188,1.98L132.11,91.044l24.994-41.725l21.724,13.014l-1.222,2.038
				L158.38,52.853z M148.423,73.352l17.521,10.496l-1.221,2.036l-15.028-9.003l-7.697,12.853l15.027,9.003l-1.188,1.979
				l-17.521-10.494L148.423,73.352z M159.309,55.179l17.521,10.494l-1.222,2.038L160.58,58.71l-7.665,12.794l15.027,9.003
				l-1.221,2.038L149.201,72.05L159.309,55.179z"/>
		</g>
		<g>
			<path fill="#F15946" d="M146.263,200.975l2.067-3.454c-3.366-1.097-4.958-2.216-10.9-4.187L146.263,200.975z"/>
			<path fill="#F15946" d="M240.036,87.421L195.35,60.652c-2.677-1.604-6.176-0.727-7.776,1.95L107.77,195.818
				c-1.604,2.676-0.727,6.175,1.95,7.776l44.686,26.769c2.675,1.603,6.174,0.726,7.776-1.949l79.803-133.216
				C243.588,92.522,242.711,89.023,240.036,87.421z M170.256,200.512l-1.069,1.787c-0.557,0.927-1.947,1.434-3.021,1.125
				l-10.877-3.666l-3.77,6.292l8.329,7.925c0.775,0.8,0.985,2.269,0.435,3.19l-1.072,1.789c-0.887,1.479-2.711,1.729-3.943,0.568
				l-11.304-10.793l-20.755-20.062c-0.774-0.801-0.985-2.27-0.435-3.191l0.813-1.356c0.556-0.925,1.983-1.493,3.021-1.124
				l42.229,13.73C170.439,197.27,171.143,199.033,170.256,200.512z M184.188,177.264l-0.853,1.418
				c-0.441,0.738-1.75,1.382-2.574,1.224l-26.354-4.139l20.354,12.191c1.232,0.739,1.593,2.379,0.891,3.551l-1.071,1.789
				c-0.701,1.174-2.314,1.631-3.552,0.892L133.9,171.948c-1.233-0.739-1.593-2.379-0.893-3.551l0.889-1.479
				c0.479-0.802,1.75-1.382,2.576-1.224l26.354,4.138l-20.354-12.191c-1.233-0.739-1.631-2.317-0.893-3.552l1.034-1.728
				c0.738-1.233,2.317-1.629,3.552-0.89l37.13,22.24C184.53,174.452,184.926,176.029,184.188,177.264z M194.058,160.644
				l-0.984,1.646c-0.729,1.219-2.288,1.609-3.508,0.88l-32.781-19.638l-2.957,4.936c-0.729,1.221-2.288,1.609-3.508,0.881
				l-1.707-1.021c-1.219-0.729-1.608-2.289-0.88-3.509l9.563-15.965c0.729-1.22,2.289-1.608,3.51-0.879l1.707,1.021
				c1.219,0.729,1.607,2.29,0.879,3.508l-2.993,4.997l32.782,19.64C194.398,157.867,194.788,159.426,194.058,160.644z
				 M204.52,143.321l-1.021,1.706c-0.729,1.22-2.288,1.607-3.506,0.881l-36.684-21.976c-1.22-0.729-1.608-2.289-0.88-3.509
				l1.021-1.707c0.692-1.155,2.29-1.607,3.508-0.879l36.685,21.976C204.86,140.543,205.213,142.164,204.52,143.321z
				 M214.267,127.055c-1.39,2.313-3.371,4.521-6.524,5.363c-3.021,0.757-6.628,0.418-11.438-2.465l-17.248-10.332
				c-4.633-2.772-6.873-5.938-7.533-8.982c-0.624-3.105,0.287-5.872,1.675-8.188c1.351-2.256,3.359-4.363,6.393-5.279
				c2.996-0.854,6.811-0.311,11.438,2.467l0.854,0.511c1.22,0.729,1.609,2.289,0.916,3.447l-1.06,1.767
				c-0.729,1.22-2.289,1.609-3.507,0.881l-0.854-0.513c-4.082-2.444-6.651-2.163-8.147,0.335c-1.533,2.561-0.568,4.958,3.514,7.402
				l17.243,10.33c4.082,2.445,6.678,2.263,8.247-0.357c0.691-1.157,0.861-2.547,0.582-3.46c-0.536-1.314-1.999-2.604-4.191-3.919
				l-0.854-0.513c-1.221-0.729-1.608-2.287-0.88-3.508l1.059-1.768c0.693-1.157,2.253-1.548,3.473-0.817l0.854,0.511
				c4.813,2.885,6.851,5.844,7.606,8.862C216.626,122.01,215.58,124.86,214.267,127.055z M228.658,102.893
				c-4.017,6.703-9.925,7.718-17.905,2.937l-0.793-0.478c-1.219-0.729-1.608-2.289-0.88-3.51l1.021-1.704
				c0.692-1.158,2.29-1.61,3.509-0.881l0.792,0.476c2.926,1.752,4.654,2.043,5.896,1.628c1.071-0.271,1.813-1.23,2.325-2.084
				c1.532-2.562,1.273-4.618-1.955-6.553c-2.861-1.717-6.796-0.264-10.898,1.336l0.062,0.037
				c-5.578,2.123-11.388,4.355-17.419,0.741c-6.887-4.125-8.691-10.093-4.823-16.552c3.94-6.58,10.229-7.535,17.968-2.897
				l0.854,0.512c1.218,0.729,1.608,2.289,0.879,3.508l-1.021,1.707c-0.729,1.218-2.29,1.608-3.51,0.879l-0.854-0.512
				c-4.021-2.408-6.615-2.226-8.222,0.457c-1.533,2.561-0.973,4.802,2.195,6.699c3.106,1.859,7.271,0.299,11.377-1.301l-0.034,0.063
				c5.516-2.159,11.067-4.381,16.979-0.84C231.023,90.649,232.526,96.434,228.658,102.893z"/>
		</g>
	</g>
	<line fill="none" x1="155.45" y1="116.227" x2="155.98" y2="116.512"/>
</g>
<g id="Layer_16" display="none">
	<rect x="0" y="0" display="inline" width="244.898" height="233.275"/>
	<g display="inline">
		<g>
			<path fill="#FFFFFF" d="M5.361,128.005c-1.114-2.547,0.029-5.478,2.449-6.536l3.564-1.563c2.547-1.116,5.479,0.027,6.595,2.574
				l25.387,57.943c2.957,6.75,6.726,9.808,12.965,7.071c6.495-2.846,6.27-8.211,3.592-14.324l-25.388-57.943
				c-1.115-2.547,0.029-5.479,2.449-6.537l3.564-1.563c2.547-1.114,5.479,0.027,6.593,2.575l25.389,57.944
				c6.249,14.265,4.099,25.982-10.675,32.456c-15.282,6.693-25.184-0.654-31.099-14.154L5.361,128.005z"/>
			<path fill="#FFFFFF" d="M90.654,143.88L104.727,176c1.115,2.55-0.028,5.481-2.451,6.543l-3.568,1.563
				c-2.55,1.117-5.48-0.027-6.6-2.578L58.49,104.796c-1.117-2.55,0.027-5.48,2.577-6.601l13.767-6.029
				c15.551-6.813,26.008-1.672,33.212,14.771c7.204,16.441,3.896,27.617-11.654,34.432L90.654,143.88z M74.627,107.298
				l10.499,23.963l5.735-2.513c6.884-3.017,8.068-7.938,4.438-16.228c-3.739-8.539-8.053-10.752-14.937-7.735L74.627,107.298z"/>
		</g>
		<g>
			<path fill="#FFFFFF" d="M200.695,143.329c2.676,1.604,6.175,0.727,7.777-1.95l29.21-48.76c1.603-2.676,0.726-6.175-1.95-7.777
				L98.969,2.913c-2.677-1.603-6.176-0.726-7.777,1.949l-29.21,48.761c-1.604,2.675-0.727,6.174,1.95,7.776L200.695,143.329z"/>
		</g>
		
			<rect x="197.826" y="53.588" transform="matrix(0.5139 -0.8578 0.8578 0.5139 33.7405 215.1059)" fill="#F15946" width="17.717" height="48.383"/>
		<g>
			<path fill="#F15946" d="M154.406,230.363c2.675,1.603,6.174,0.726,7.776-1.949l79.803-133.216
				c1.603-2.676,0.726-6.175-1.949-7.777L195.35,60.652c-2.677-1.604-6.176-0.727-7.776,1.95L107.77,195.818
				c-1.604,2.676-0.727,6.175,1.95,7.776L154.406,230.363z"/>
		</g>
		<g>
			<path d="M92.429,15.115l14.028,8.404L83.466,61.904l-2.563-1.535l21.771-36.347l-11.466-6.869L92.429,15.115z M85.104,62.884
				l22.993-38.383l14.028,8.405l-1.222,2.037l-11.466-6.868L87.668,64.42L85.104,62.884z M122.908,31.604L93.209,13.813l1.223-2.038
				l29.696,17.791L122.908,31.604z"/>
			<path d="M130.503,33.307l-24.994,41.725l-2.49-1.494l24.994-41.725L130.503,33.307z M119.29,55.901l15.17,9.087l-12.07,20.154
				l-2.563-1.536l10.887-18.172l-10.111-6.061l-10.891,18.173l-2.491-1.491L119.29,55.901z M135.275,63.63l-15.17-9.087
				l12.105-20.211l2.493,1.493l-10.921,18.229l10.112,6.059l10.921-18.229l2.563,1.536L135.275,63.63z M124.027,86.124L149.021,44.4
				l2.563,1.536L126.589,87.66L124.027,86.124z"/>
			<path d="M158.38,52.853l-22.587,37.705l19.229,11.521l-1.188,1.98L132.11,91.044l24.994-41.725l21.724,13.014l-1.222,2.038
				L158.38,52.853z M148.423,73.352l17.521,10.496l-1.221,2.036l-15.028-9.003l-7.697,12.853l15.027,9.003l-1.188,1.979
				l-17.521-10.494L148.423,73.352z M159.309,55.179l17.521,10.494l-1.222,2.038L160.58,58.71l-7.665,12.794l15.027,9.003
				l-1.221,2.038L149.201,72.05L159.309,55.179z"/>
		</g>
		<g>
			<path fill="#FFFFFF" d="M155.288,199.76l-3.77,6.292l8.329,7.925c0.775,0.8,0.985,2.269,0.435,3.19l-1.072,1.789
				c-0.887,1.479-2.711,1.729-3.943,0.568l-11.304-10.793l-20.755-20.062c-0.774-0.801-0.985-2.27-0.435-3.191l0.813-1.356
				c0.556-0.925,1.983-1.493,3.021-1.124l42.229,13.73c1.604,0.542,2.309,2.305,1.42,3.783l-1.069,1.788
				c-0.557,0.927-1.947,1.434-3.021,1.125L155.288,199.76z M146.263,200.975l2.067-3.454c-3.366-1.097-4.958-2.216-10.9-4.187
				L146.263,200.975z"/>
			<path fill="#FFFFFF" d="M183.337,178.682c-0.441,0.738-1.75,1.382-2.574,1.224l-26.354-4.139l20.354,12.191
				c1.232,0.739,1.593,2.379,0.891,3.551l-1.071,1.789c-0.701,1.174-2.314,1.631-3.552,0.892l-37.13-22.242
				c-1.233-0.739-1.593-2.379-0.893-3.551l0.889-1.479c0.479-0.802,1.75-1.382,2.576-1.224l26.354,4.138l-20.354-12.191
				c-1.233-0.739-1.631-2.317-0.893-3.552l1.034-1.728c0.738-1.233,2.317-1.629,3.552-0.89l37.13,22.24
				c1.233,0.739,1.629,2.316,0.893,3.553L183.337,178.682z"/>
			<path fill="#FFFFFF" d="M148.613,148.326c-1.219-0.729-1.608-2.289-0.88-3.509l9.563-15.965c0.729-1.22,2.289-1.608,3.51-0.879
				l1.707,1.021c1.219,0.729,1.607,2.29,0.879,3.508l-2.993,4.997l32.782,19.64c1.219,0.729,1.607,2.287,0.879,3.507l-0.984,1.646
				c-0.729,1.219-2.288,1.609-3.508,0.88l-32.781-19.638l-2.957,4.936c-0.729,1.221-2.288,1.609-3.508,0.881L148.613,148.326z"/>
			<path fill="#FFFFFF" d="M203.642,139.813c1.218,0.729,1.569,2.351,0.878,3.508l-1.021,1.706c-0.729,1.22-2.288,1.607-3.506,0.881
				l-36.684-21.976c-1.22-0.729-1.608-2.289-0.88-3.509l1.021-1.707c0.692-1.155,2.29-1.607,3.508-0.879L203.642,139.813z"/>
			<path fill="#FFFFFF" d="M179.055,119.623c-4.633-2.772-6.873-5.938-7.533-8.982c-0.624-3.105,0.287-5.872,1.675-8.188
				c1.351-2.256,3.359-4.363,6.393-5.279c2.996-0.854,6.811-0.311,11.438,2.467l0.854,0.511c1.22,0.729,1.609,2.289,0.916,3.447
				l-1.06,1.767c-0.729,1.22-2.289,1.609-3.507,0.881l-0.854-0.513c-4.082-2.444-6.651-2.163-8.147,0.335
				c-1.533,2.561-0.568,4.958,3.514,7.403l17.243,10.329c4.082,2.445,6.678,2.263,8.247-0.357c0.691-1.157,0.86-2.547,0.582-3.46
				c-0.536-1.314-1.999-2.604-4.191-3.919l-0.854-0.513c-1.221-0.729-1.608-2.287-0.88-3.508l1.059-1.768
				c0.693-1.157,2.253-1.548,3.473-0.817l0.854,0.511c4.813,2.885,6.851,5.844,7.606,8.862c0.744,3.179-0.302,6.029-1.613,8.226
				c-1.39,2.313-3.371,4.521-6.524,5.363c-3.021,0.757-6.628,0.418-11.438-2.465L179.055,119.623z"/>
			<path fill="#FFFFFF" d="M209.96,105.352c-1.219-0.729-1.608-2.289-0.88-3.51l1.021-1.704c0.692-1.158,2.29-1.61,3.509-0.881
				l0.792,0.476c2.926,1.752,4.654,2.043,5.896,1.628c1.071-0.271,1.813-1.23,2.325-2.084c1.532-2.562,1.273-4.618-1.955-6.553
				c-2.861-1.717-6.796-0.264-10.898,1.336l0.062,0.037c-5.578,2.123-11.388,4.355-17.419,0.741
				c-6.887-4.125-8.691-10.093-4.823-16.552c3.94-6.58,10.229-7.535,17.968-2.897l0.854,0.512c1.218,0.729,1.608,2.289,0.879,3.508
				l-1.021,1.707c-0.729,1.218-2.29,1.608-3.51,0.879l-0.854-0.512c-4.021-2.408-6.615-2.226-8.222,0.457
				c-1.533,2.561-0.973,4.802,2.195,6.699c3.106,1.859,7.271,0.299,11.377-1.301l-0.034,0.063c5.516-2.159,11.067-4.381,16.979-0.84
				c6.823,4.088,8.326,9.873,4.458,16.332c-4.017,6.703-9.925,7.718-17.905,2.937L209.96,105.352z"/>
		</g>
	</g>
</g>
</svg>
